<svg id="Layer_1" data-name="Layer 1" xmlns="http://www.w3.org/2000/svg" viewBox="0 0 1128.52 512"><defs><style>.cls-1{fill:#fff;}.cls-2{fill:#df6672;}.cls-3{fill:#c85863;}.cls-4{fill:#dd98a6;}.cls-5{fill:#26435f;}.cls-6,.cls-7{fill:#8be7ae;}.cls-7{font-size:41.7px;font-family:Coves-Bold, Coves;font-weight:700;letter-spacing:0.05em;}</style></defs><title>Reddime Completo ColorSVG</title><g id="_Group_" data-name="&lt;Group&gt;"><polygon id="_Path_" data-name="&lt;Path&gt;" class="cls-1" points="138.53 271.43 62.75 366.06 59.96 375.99 65.89 382.34 75.67 379.62 117.11 326.27 153.7 281.81 138.53 271.43"/><ellipse id="_Path_2" data-name="&lt;Path&gt;" class="cls-2" cx="193.67" cy="214.57" rx="74.82" ry="71.9"/><path id="_Path_3" data-name="&lt;Path&gt;" class="cls-3" d="M137,261.44s-22.15-96.51,63.56-123c0,0-47.53-2.37-66.13,26.45s-19.09,50.44-18.11,58.28S137,261.44,137,261.44Z"/><g id="_Group_2" data-name="&lt;Group&gt;"><path class="cls-4" d="M246.63,183.72c1.64,2.85,3.65,7,3.66,10.32,0,3.83,6,3.84,6,0,0-4.41-2.31-9.57-4.48-13.33-1.91-3.32-7.06-.32-5.14,3Z"/></g><g id="_Group_3" data-name="&lt;Group&gt;"><path class="cls-4" d="M252.27,204.91v2a3,3,0,0,0,6,0v-2a3,3,0,0,0-6,0Z"/></g><path class="cls-5" d="M267,181.06a80.65,80.65,0,1,0-132.55,88.26l-76,96.72a12.74,12.74,0,1,0,20.13,15.62L154,284.76a80.51,80.51,0,0,0,47.13,10.12h0A80.7,80.7,0,0,0,267,181.06ZM73,377.39a5.74,5.74,0,0,1-8,1,5.73,5.73,0,0,1-1-8.08L139,275l4.06,2.31q2.45,2,5,3.76ZM223.53,280a71.81,71.81,0,0,1-23.2,6.21q-1.42.13-2.84.21a68.35,68.35,0,0,1-53.75-39.52,54,54,0,0,1,26.65-71.43,42.3,42.3,0,0,1,56,20.89,33,33,0,0,1-16.28,43.63,25.49,25.49,0,0,1-33.74-12.59,3.68,3.68,0,0,1-.41-2.52,4.42,4.42,0,0,1,.84-2c3-4,8.74-11.56,14.92-19.29a6,6,0,0,1,6.3-2.07,20.93,20.93,0,0,1,2.15.73,6,6,0,0,1,3.12,8.37c-.63,1.24-2.54,5-10.72,4.49l-4,0a4.33,4.33,0,0,0-4.14,5.75l4.27,12.34a4.33,4.33,0,0,0,8.19-2.83l-2-5.7a.63.63,0,0,1,.58-.82c9.55-.44,13.78-5.86,15.51-9.28a14.82,14.82,0,0,0,.68-11.86,14.56,14.56,0,0,0-8.29-8.44,29.71,29.71,0,0,0-3-1,14.62,14.62,0,0,0-15.41,5c-9,11.26-17.16,22.27-17.24,22.39a10.07,10.07,0,0,0-.87,4.77,16.79,16.79,0,0,0,1.55,5.71c11.2,23.25,44.48,29.21,62.41,1.62,7.79-12,9.42-27.24,3.4-40.22a51.07,51.07,0,0,0-67.45-24.93,62.73,62.73,0,0,0-31,83,77.35,77.35,0,0,0,14.46,21.34A71.88,71.88,0,1,1,223.53,280Z"/></g><path class="cls-6" d="M792.51,211.63a10.47,10.47,0,0,0,10.36-10.36,10.36,10.36,0,0,0-10.36-10.36,10.24,10.24,0,0,0-10.36,10.36A10.36,10.36,0,0,0,792.51,211.63Z"/><path class="cls-6" d="M1070.41,283.06a7.52,7.52,0,0,0-11.09.73c-12.72,14.91-25.45,20.9-39.81,20.9-8.91,0-16.18-2-19.63-6.54-2.73-3.64-4-8.91-2.91-14.72h16.72c25.08,0,44-12.18,44-34.35,0-16.9-13.63-25.08-27.26-25.08-7.27,0-14.36,1.09-20.9,4.54-6.91,3.45-13.81,9.45-21.63,18.72l-25.27,30a8.35,8.35,0,0,0-.59.8l-17.22,20.47c-3.09,3.45-5.45,5.82-8.54,5.82l11.27-41.26c2.91-10,2.91-20.54-3.09-28.54C938.83,227.26,930.83,224,922.1,224c-10,0-19.45,3.64-25.81,10.91-5.09-7.45-12.36-10.91-20.9-10.91a30.72,30.72,0,0,0-22,9.45c.54-2.54-1.09-8-7.81-8a8,8,0,0,0-6.73,3.82,94.33,94.33,0,0,1-8.36,11.45c-11.45,13.63-28.36,33.62-28.36,33.62a7.58,7.58,0,0,0-.57.85l-16,19c-3.45,4-8,10.18-12.36,10.18l18.54-67.43a18.45,18.45,0,0,0,.73-4,8,8,0,0,0-14-4.72l-39.81,47.26a7.43,7.43,0,0,0-.42.63l-15.2,18.09c-3.45,4-8,10.18-12.36,10.18l30.9-112.14a7.94,7.94,0,0,0-5.64-9.63,7.58,7.58,0,0,0-9.45,5.45L714,233.62c-5.64-6.36-14.36-9.63-22.72-9.63-10,0-16.72,2-23.81,6.91C660,236,653.29,244.53,646.2,252.71l-5.73,6.82c-.15.16-.31.29-.44.45l-27.6,34.17c-3.45,4-8,10.18-12.36,10.18L631,192.18a7.94,7.94,0,0,0-5.63-9.63,7.58,7.58,0,0,0-9.45,5.45l-12.54,45.62C597.7,227.26,589,224,580.61,224c-10,0-16.72,2-23.81,6.91-7.45,5.09-14.18,13.63-21.27,21.81L526.85,263c-.07.08-.15.13-.22.21l-13.27,15.81c-18.54,21.27-30.9,25.81-45.26,25.81-8.91,0-15.45-2.36-18.72-6.91-2.73-3.64-3.45-8.73-2.36-14.54h16.72c12,0,21.27-2,28.35-6,7.27-4.18,12.18-10.91,14.91-19.81a28.69,28.69,0,0,0,.73-12.36C505.91,231.81,492.83,224,480.47,224c-7.27,0-14.36,1.09-20.9,4.54-6.91,3.45-13.81,9.45-21.63,18.72l-11.69,13.88-.12.12v0l-13.44,16a8.47,8.47,0,0,0-1,1.33c-6.3,7-11.89,14.32-16.6,19.22a6.62,6.62,0,0,1-10.18-.7c-4.32-6-10.2-14.55-13.58-19.9,13.64-3.14,29.52-9.73,38.84-17.87,14.28-12.47,15.65-39.16,7.3-53.8-7.68-13.46-24.24-20.58-46.33-20-11.38.29-17,1.77-21.81,6.93-1.86,2-3.5,2.43-10.79,20.85-4.47,11.3-14.27,36-23.61,55.76-1.85,3.9-10.61,21.41-11.59,23.41-1.09,2.23-2.22,4.45-3.43,6.62-.57,1-1.16,2.06-1.79,3.06-.25.39-2.15,2.88-.67,1.09-2.83,3.41-3.34,8.27,0,11.62,2.91,2.91,8.77,3.43,11.62,0,3.52-4.25,6-9.16,8.46-14.1.87-1.77,2-3.78,3.05-5.84,8.4-14.42,18.53-38.43,33.23-75.59,1-2.43,1.94-4.89,2.85-7.16a16.28,16.28,0,0,1,14.7-10.24h.2c7.38-.19,25.29.59,31.66,11.74,5.33,9.34,3.28,27.07-3.84,33.29-8.51,7.43-28.66,15.07-41.55,15.76a8.39,8.39,0,0,0-5.21,2.09,8.22,8.22,0,0,0-1.76,9.95c3.48,6.58,9.71,16.19,14.38,23C375.92,313.29,382.73,315,382.73,315a31.92,31.92,0,0,0,4.8,1.54,18,18,0,0,0,17.9-6.31l9.73-11.84L423.86,288c.08-.09.18-.14.27-.23L432.3,278c-2.91,11.09-1.27,21.63,4.54,29.44,4.54,6,13.45,13.09,31.26,13.09a58.85,58.85,0,0,0,28.35-6.72c9.63-4.91,17.81-12.18,28-23.81l1-1.15c.1-.1.2-.19.3-.3l7.63-9.09c-2.73,11.63-1.09,22,4.73,29.63,5.64,7.27,14.36,11.45,25.08,11.45A39.08,39.08,0,0,0,585,313.78c2,3.82,6.18,6.72,12.72,6.72,12.36,0,19.45-7.82,28.72-18.9L644,279.43c-2.73,11.63-1.09,22,4.73,29.63,5.64,7.27,14.36,11.45,25.08,11.45a39.08,39.08,0,0,0,21.81-6.72c2,3.82,6.18,6.72,12.72,6.72,12.36,0,19.45-7.82,28.72-18.9l26.9-32c.1-.12.17-.26.26-.39l3.18-3.79c-4.54,16.54-10,36.72-10,36.72a30,30,0,0,0-.73,5.63c0,6,4.54,12.72,14.18,12.72,12.36,0,19.81-8.18,29.08-19.27L824.5,272c.11-.13.19-.29.3-.43l5.33-6.29L818,309.06c-1.27,5.09,1.64,10,7.63,10a7.75,7.75,0,0,0,7.45-5.82l10.36-36.71c7.09-24.54,18.54-37.26,31.08-37.26,10.18,0,12,9.27,8.91,19.45l-10.54,39.08c-1.27,4.91.73,8.54,5.09,9.63,5.09,1.27,8.72-1.27,10.18-6,.55-2,8.54-31.44,10.91-40,3.09-11.63,10-22.17,22-22.17,11.45,0,14.54,8.91,11.45,19.63L921.19,299.6a32.21,32.21,0,0,0-1.09,8c0,7.27,7.27,12.72,14.9,12.72s13.27-2.36,20.17-10c0,0,19-22.68,27-32.21-2.85,11-.67,21.7,5.12,29.48,4.73,6.36,13.45,12.9,30.72,12.9,21.08,0,38.35-8.91,52.71-26.54C1073.32,290.88,1073.69,286,1070.41,283.06Zm-68.16-18.9c4.18-14.54,13.45-24.54,27.45-24.54,8.54,0,14,5.63,12.18,13.63-2.73,12.9-17.63,14.54-28.17,14.54h-12.36A35.29,35.29,0,0,1,1002.25,264.16Zm-550,0c4.18-14.54,13.45-24.54,27.45-24.54,8.54,0,14,5.63,12.18,13.63a15.13,15.13,0,0,1-7.63,10.54c-4.54,2.73-11.27,4-20.54,4H451.39A35.23,35.23,0,0,1,452.3,264.16Zm143.59-3.64c-1.09,4.91-2.54,9.63-3.82,14-7.63,27.26-19.09,30.35-28.9,30.35-14.36,0-17.63-11.81-14-24,1.45-5.82,2.91-11.27,4.54-16.72,3.82-13.45,12.72-24.54,26.17-24.54C592.79,239.62,598.43,249.26,595.88,260.53Zm110.66,0c-1.09,4.91-2.54,9.63-3.82,14-7.63,27.26-19.09,30.35-28.9,30.35-14.36,0-17.63-11.81-14-24,1.45-5.82,2.91-11.27,4.54-16.72,3.82-13.45,12.72-24.54,26.17-24.54C703.46,239.62,709.09,249.26,706.54,260.53Z"/><text class="cls-7" transform="translate(405.07 382.35)">La revolución en el consumo</text></svg>