<?xml version="1.0" encoding="utf-8"?>
<!-- Generator: Adobe Illustrator 21.0.0, SVG Export Plug-In . SVG Version: 6.00 Build 0)  -->
<svg version="1.1" id="Layer_1" xmlns="http://www.w3.org/2000/svg" xmlns:xlink="http://www.w3.org/1999/xlink" x="0px" y="0px"
	 viewBox="0 0 365.8 72.8" style="enable-background:new 0 0 365.8 72.8;" xml:space="preserve">
<style type="text/css">
	.st0{fill:#DF6672;}
	.st1{fill:#C85863;}
	.st2{fill:#26435F;}
	.st3{fill:#FFFFFF;}
	.st4{fill:#DD98A6;}
	.st5{fill:none;stroke:#DD98A6;stroke-width:0.25;stroke-miterlimit:10;}
	.st6{fill:none;}
	.st7{fill:#8BE7AE;}
	.st8{fill:#606060;}
</style>
<g>
	<path class="st6" d="M349.5,37.4c0.1-0.5,0.2-1,0.2-1.5c0-3.4-2.7-5.7-6.6-5.7c-7.4,0-12.3,5.3-14.5,12.9c-0.2,0.7-0.4,1.3-0.5,1.9
		h6.5C340.3,45.1,348.1,44.2,349.5,37.4z"/>
	<path class="st6" d="M10.2,62.3C10.2,62.3,10.2,62.3,10.2,62.3C10.2,62.3,10.2,62.3,10.2,62.3z"/>
	<path class="st6" d="M10,62.2c-0.7-0.2-1.5-0.7-2.1-1.4C8.5,61.6,9.2,62,10,62.2z"/>
	<path class="st6" d="M114.2,43c2-1.1,3.4-2.9,4-5.6c1-4.2-1.9-7.2-6.4-7.2c-7.4,0-12.3,5.3-14.5,12.9c-0.2,0.7-0.4,1.3-0.5,1.9h6.5
		C108.3,45.1,111.8,44.4,114.2,43z"/>
	<path class="st6" d="M164.6,30.2c-7.1,0-11.8,5.8-13.8,12.9c-0.9,2.9-1.6,5.7-2.4,8.8c-1.9,6.4-0.2,12.6,7.4,12.6
		c5.2,0,11.2-1.6,15.2-16c0.7-2.3,1.4-4.8,2-7.4C174.3,35.3,171.3,30.2,164.6,30.2z"/>
	<path class="st7" d="M218.2,15.5c3,0,5.5-2.5,5.5-5.5c0-3.1-2.5-5.5-5.5-5.5c-3.1,0-5.5,2.4-5.5,5.5
		C212.8,13,215.2,15.5,218.2,15.5z"/>
	<path class="st7" d="M208.1,64.3C208.1,64.3,208.1,64.3,208.1,64.3l9.8-35.5c0.3-1.1,0.4-1.7,0.4-2.1c0,0,0,0,0,0
		c0,0.4-0.1,1-0.4,2.1L208.1,64.3z"/>
	<path class="st7" d="M203.4,45.8c-0.1,0.1-0.1,0.2-0.2,0.2l-14.2,16.8c-4.9,5.8-8.6,10-15.1,10l-0.1,0c0,0,0,0,0.1,0
		c6.5,0,10.2-4.1,15.1-10L203.2,46C203.3,45.9,203.3,45.9,203.4,45.8l1.7-2c0,0,0,0,0,0L203.4,45.8z"/>
	<path class="st7" d="M293.9,64.3C293.9,64.3,293.9,64.3,293.9,64.3l5.9-21.7c0.7-2.3,1-4.7,1-6.9c0.1,2.3-0.3,4.6-1,6.9L293.9,64.3
		z"/>
	<path class="st7" d="M235.2,47c-0.1,0.1-0.1,0.2-0.2,0.2l-12.9,15.4c-4.9,5.8-8.8,10.1-15.3,10.1c-5.1,0-7.5-3.5-7.5-6.7
		c0,0,0,0,0,0c0,3.2,2.4,6.7,7.5,6.7c6.5,0,10.4-4.3,15.3-10.1l12.9-15.4C235.1,47.2,235.2,47.1,235.2,47l2.8-3.3l0,0L235.2,47z"/>
	<path class="st7" d="M250.3,27c0-0.2,0.1-0.4,0.1-0.6C250.4,26.6,250.3,26.8,250.3,27C250.3,27,250.3,27,250.3,27z"/>
	<path class="st7" d="M334.7,53.3h-8.8c-0.1,0.8-0.2,1.5-0.2,2.2c0-0.7,0.1-1.5,0.2-2.2L334.7,53.3c13.2,0,23.2-6.4,23.2-18.1
		c0,0,0,0,0,0C357.9,46.9,347.9,53.3,334.7,53.3z"/>
	<path class="st7" d="M175.2,64.3l16.3-59.1c0.6-2.2-0.8-4.5-3-5.1c-2.1-0.7-4.4,0.7-5,2.9l-6.6,24c-3-3.3-7.6-5.1-12-5.1
		c-5.3,0-8.8,1.1-12.5,3.6c-3.9,2.7-7.5,7.2-11.2,11.5l-4.6,5.5c0,0-0.1,0.1-0.1,0.1l-7,8.3c-9.8,11.2-16.3,13.6-23.8,13.6
		c-4.7,0-8.1-1.2-9.9-3.6c-1.4-1.9-1.8-4.6-1.2-7.7h8.8c6.3,0,11.2-1.1,14.9-3.2c3.8-2.2,6.4-5.7,7.8-10.4c0.6-2.2,0.8-4.4,0.4-6.5
		c-1-7.1-7.8-11.2-14.4-11.2c-3.8,0-7.6,0.6-11,2.4c-3.6,1.8-7.3,5-11.4,9.9L77.4,49c-6.6,6.3-14.2,11.9-18,13.9
		c-1.9-2.4-5-6.9-7.6-11c7.5-1.7,16.2-5.3,21.3-9.8c7.8-6.8,8.6-21.5,4-29.5c-4.2-7.4-13.3-11.3-25.4-11c-6.2,0.2-10.2,1.2-12.4,3.3
		c-1.1,1-1.4,1.8-5.4,11.9C29.7,27.3,15.3,62,11.7,62.5c-0.3,0-0.6,0-0.9-0.1c-0.2,0-0.4-0.1-0.6-0.1c0,0,0,0-0.1,0c0,0-0.1,0-0.1,0
		c-0.9-0.2-1.6-0.7-2.1-1.4c-0.3-0.3-0.6-0.6-0.8-1c-0.9-1.3-3.1-1.7-5.3-0.1c-4,2.8-0.1,7.5,0.5,8.1c2.5,2.4,5.9,3.6,10.1,3.6
		c7.4-0.1,14.4-12.1,29.9-51.3c1.4-3.5,2.8-7.2,3.5-8.7c0.7-0.3,2.4-0.7,6.2-0.8c4-0.1,13.9,0.3,17.3,6.4c2.9,5.1,1.8,14.8-2.1,18.2
		c-4.7,4.1-15.7,8.3-22.8,8.6c-1,0.1-2.1,0.4-2.9,1.1c-1.6,1.4-1.9,3.7-1,5.4c1.9,3.6,5.3,8.9,7.9,12.6c5.8,8.5,7.1,9.4,9.6,9.4
		c0,0,0,0,0,0c5.2,0,18.7-9.9,28.3-19.8c-0.8,5,0.2,9.6,2.9,13.2c2.4,3.2,7.1,6.9,16.5,6.9c5.6,0,10.3-1.1,14.9-3.5
		c5.1-2.6,9.4-6.4,14.7-12.5l0.6-0.7c0,0,0.1,0,0.1-0.1l4-4.8c-1.4,6.1-0.6,11.6,2.5,15.6c3,3.8,7.6,6,13.2,6c4.1,0,8-1.2,11.5-3.5
		c1,1.8,2.9,3.2,5.8,3.5L175.2,64.3C175.2,64.3,175.2,64.3,175.2,64.3z M97.4,43.1c2.2-7.7,7.1-12.9,14.5-12.9c4.5,0,7.4,3,6.4,7.2
		c-0.6,2.7-2,4.4-4,5.6c-2.4,1.4-5.9,2.1-10.8,2.1h-6.5C97,44.5,97.2,43.8,97.4,43.1z M173,41.2c-0.6,2.6-1.3,5.1-2,7.4
		c-4,14.4-10.1,16-15.2,16c-7.6,0-9.3-6.2-7.4-12.6c0.8-3.1,1.5-5.9,2.4-8.8c2-7.1,6.7-12.9,13.8-12.9
		C171.3,30.2,174.3,35.3,173,41.2z"/>
	<path class="st7" d="M303.9,67.5c-3.6,4-6.6,5.3-10.6,5.3c-4,0-7.8-2.9-7.8-6.7c0,0,0,0,0,0c0,3.8,3.8,6.7,7.8,6.7
		C297.3,72.7,300.3,71.5,303.9,67.5c0,0,10-11.9,14.2-17c0,0,0,0,0,0C313.9,55.5,303.9,67.5,303.9,67.5z"/>
	<path class="st7" d="M343.1,30.2c3.9,0,6.6,2.3,6.6,5.7C349.8,32.5,347.1,30.2,343.1,30.2c-7.4,0-12.3,5.3-14.5,12.9
		c-0.2,0.7-0.4,1.3-0.5,1.9h0c0.1-0.6,0.3-1.2,0.5-1.9C330.9,35.5,335.8,30.2,343.1,30.2z"/>
	<path class="st7" d="M285.9,30c-6.3,0-10,5.6-11.6,11.7c-1.2,4.5-5.5,20-5.7,21.1c-0.8,2.5-2.7,3.8-5.4,3.2
		c-1.7-0.4-2.7-1.6-2.9-3.3c0.1,1.7,1.1,2.8,2.9,3.3c2.7,0.7,4.6-0.7,5.4-3.2c0.3-1.1,4.5-16.6,5.7-21.1C276,35.6,279.6,30,285.9,30
		c4.5,0,6.6,2.6,6.6,6.3C292.5,32.7,290.4,30,285.9,30z"/>
	<path class="st7" d="M261.4,30c-6.6,0-12.6,6.7-16.4,19.6L239.6,69c-0.5,1.8-2.1,3.1-3.9,3.1c-2.8,0-4.3-2-4.2-4.3
		c-0.1,2.3,1.4,4.3,4.2,4.3c1.8,0,3.4-1.2,3.9-3.1l5.5-19.3C248.8,36.7,254.8,30,261.4,30c3.7,0,5.3,2.3,5.4,5.5
		C266.7,32.3,265.1,30,261.4,30z"/>
	<path class="st7" d="M364.8,58.8c-7.6,9.3-16.7,14-27.8,14c-9.1,0-13.7-3.4-16.2-6.8c-2.1-2.8-3.3-6.3-3.4-10.2
		c0.1,3.8,1.3,7.4,3.4,10.2c2.5,3.4,7.1,6.8,16.2,6.8C348.1,72.8,357.2,68.1,364.8,58.8c0.7-0.8,1.1-1.9,1.1-2.9
		C365.8,57,365.4,58,364.8,58.8z"/>
	<path class="st7" d="M318.1,50.5c-0.5,1.8-0.7,3.6-0.7,5.3C317.5,54.1,317.7,52.3,318.1,50.5C318.1,50.5,318.1,50.5,318.1,50.5z"/>
	<path class="st7" d="M214.6,58.9l8.4-10c0.1-0.2,0.2-0.3,0.3-0.4c0,0,8.9-10.5,14.9-17.7c2.7-3.2,3.4-4.5,4.4-6
		c1.1-1.5,2.4-2,3.5-2c3.1,0,4.1,2.2,4.2,3.6c0-1.4-1.1-3.6-4.2-3.6c-1.1,0-2.5,0.5-3.5,2c-1.1,1.5-1.7,2.9-4.4,6
		c-6,7.2-14.9,17.7-14.9,17.7c-0.1,0.1-0.2,0.3-0.3,0.4L214.6,58.9c-1.8,2.1-4.2,5.4-6.5,5.4l0,0C210.4,64.3,212.8,61,214.6,58.9z"
		/>
	<path class="st7" d="M261.9,22c4.5,0,8.3,1.8,11,5.7c3.4-3.8,8.3-5.7,13.6-5.7c4.6,0,8.8,1.7,11.8,5.6c1.8,2.4,2.6,5.2,2.6,8.1
		c-0.1-2.9-0.8-5.7-2.6-8.1c-3-3.8-7.2-5.6-11.8-5.6c-5.3,0-10.2,1.9-13.6,5.7C270.2,23.8,266.4,22,261.9,22c-4.5,0-8.8,2-11.6,5
		c0,0,0,0,0,0C253.1,24,257.4,22,261.9,22z"/>
	<path class="st7" d="M173,72.8l0.9,0C173.6,72.8,173.3,72.8,173,72.8L173,72.8z"/>
	<path class="st7" d="M205,43.8L205,43.8c-2.4,8.7-5.3,19.3-5.3,19.3c-0.2,0.8-0.4,2.2-0.4,3c0,0,0,0,0,0c0-0.8,0.2-2.2,0.4-3
		C199.8,63.2,202.6,52.5,205,43.8z"/>
	<path class="st7" d="M334.7,45.1c5.6,0,13.4-0.9,14.8-7.7c0.1-0.5,0.2-1,0.2-1.5c0,0.5-0.1,1-0.2,1.5
		C348.1,44.2,340.3,45.1,334.7,45.1l-6.5,0c0,0,0,0,0,0H334.7z"/>
	<path class="st7" d="M298.4,61.2c0,0,4.8-5.7,9-10.7c0.1-0.2,0.2-0.3,0.3-0.5l13.3-15.8c4.1-4.9,7.8-8,11.4-9.9
		c3.4-1.8,7.2-2.4,11-2.4c7.2,0,14.4,4.3,14.4,13.2c0,0,0,0,0,0c0-8.9-7.2-13.2-14.4-13.2c-3.8,0-7.6,0.6-11,2.4
		c-3.6,1.8-7.3,5-11.4,9.9L307.8,50c-0.1,0.1-0.2,0.3-0.3,0.5C303.2,55.5,298.4,61.2,298.4,61.2c-1.6,1.8-2.9,3.1-4.5,3.1l0,0
		C295.6,64.3,296.8,63.1,298.4,61.2z"/>
	<path class="st7" d="M327.4,61c1.8,2.4,5.6,3.4,10.3,3.4c7.6,0,14.3-3.2,21-11c1.6-1.9,4.1-1.9,5.8-0.4c0.9,0.8,1.2,1.8,1.2,2.8
		c0-1-0.4-2.1-1.2-2.8c-1.7-1.5-4.2-1.5-5.8,0.4c-6.7,7.8-13.4,11-21,11C333.1,64.5,329.3,63.4,327.4,61c-1.1-1.4-1.7-3.4-1.7-5.5
		C325.7,57.7,326.4,59.6,327.4,61z"/>
	<path class="st7" d="M181.7,58.9l8-9.5c0.1-0.1,0.1-0.2,0.2-0.4l21-24.9c0.8-1,2-1.4,3.2-1.4c2.4,0,4.2,1.8,4.2,3.9c0,0,0,0,0,0
		c0-2.1-1.8-3.9-4.2-3.9c-1.1,0-2.4,0.5-3.2,1.4l-21,24.9c-0.1,0.1-0.2,0.2-0.2,0.4L181.7,58.9c-1.8,2.1-4.2,5.4-6.5,5.4l0,0
		C177.5,64.3,179.9,61,181.7,58.9z"/>
	<path class="st7" d="M291.9,40.4c0.4-1.4,0.6-2.8,0.6-4C292.5,37.6,292.3,39,291.9,40.4L286,61.8c-0.5,1.8-0.6,3.4-0.6,4.2
		c0,0,0,0,0,0c0-0.9,0.1-2.4,0.6-4.2L291.9,40.4z"/>
	<path class="st7" d="M238.1,43.7L238.1,43.7l-6.4,23.1c-0.1,0.3-0.1,0.7-0.1,1c0-0.3,0.1-0.7,0.1-1L238.1,43.7z"/>
	<path class="st7" d="M266.1,40.3c0.5-1.7,0.8-3.3,0.7-4.8C266.9,37,266.6,38.6,266.1,40.3l-5.6,20.6c-0.2,0.6-0.2,1.3-0.2,1.8
		c0-0.6,0-1.2,0.2-1.8L266.1,40.3z"/>
	<path class="st7" d="M337,72.8c11.1,0,20.2-4.7,27.8-14c0.7-0.8,1.1-1.9,1.1-2.9c0-1-0.4-2.1-1.2-2.8c-1.7-1.5-4.2-1.5-5.8,0.4
		c-6.7,7.8-13.4,11-21,11c-4.7,0-8.5-1.1-10.3-3.4c-1.1-1.4-1.7-3.4-1.7-5.5c0-0.7,0.1-1.5,0.2-2.2h8.8c13.2,0,23.2-6.4,23.2-18.1
		c0-8.9-7.2-13.2-14.4-13.2c-3.8,0-7.6,0.6-11,2.4c-3.6,1.8-7.3,5-11.4,9.9L307.8,50c-0.1,0.1-0.2,0.3-0.3,0.5c-4.2,5-9,10.7-9,10.7
		c-1.6,1.8-2.9,3.1-4.5,3.1l0,0c0,0,0,0,0,0l5.9-21.7c0.7-2.3,1-4.7,1-6.9c-0.1-2.9-0.8-5.7-2.6-8.1c-3-3.8-7.2-5.6-11.8-5.6
		c-5.3,0-10.2,1.9-13.6,5.7c-2.7-3.9-6.5-5.7-11-5.7c-4.5,0-8.8,2-11.6,5c0,0,0,0,0,0c0,0,0,0,0,0c0-0.2,0.1-0.4,0.1-0.6
		c0-1.4-1.1-3.6-4.2-3.6c-1.1,0-2.5,0.5-3.5,2c-1.1,1.5-1.7,2.9-4.4,6c-6,7.2-14.9,17.7-14.9,17.7c-0.1,0.1-0.2,0.3-0.3,0.4l-8.4,10
		c-1.8,2.1-4.2,5.4-6.5,5.4l0,0c0,0,0,0,0,0l9.8-35.5c0.3-1.1,0.4-1.7,0.4-2.1c0-2.1-1.8-3.9-4.2-3.9c-1.1,0-2.4,0.5-3.2,1.4
		l-21,24.9c-0.1,0.1-0.2,0.2-0.2,0.4l-8,9.5c-1.8,2.1-4.2,5.4-6.5,5.4l0,0c0,0,0,0,0,0l-2.2,8.5c0.3,0,0.6,0,0.9,0l0.1,0
		c6.5,0,10.2-4.1,15.1-10L203.2,46c0.1-0.1,0.1-0.2,0.2-0.2l1.7-2c0,0,0,0,0,0l0,0c-2.4,8.7-5.3,19.3-5.3,19.3
		c-0.2,0.8-0.4,2.2-0.4,3c0,3.2,2.4,6.7,7.5,6.7c6.5,0,10.4-4.3,15.3-10.1l12.9-15.4c0.1-0.1,0.1-0.2,0.2-0.2l2.8-3.3l0,0l0,0
		l-6.4,23.1c-0.1,0.3-0.1,0.7-0.1,1c-0.1,2.3,1.4,4.3,4.2,4.3c1.8,0,3.4-1.2,3.9-3.1l5.5-19.3c3.7-12.9,9.8-19.6,16.4-19.6
		c3.7,0,5.3,2.3,5.4,5.5c0.1,1.4-0.2,3.1-0.7,4.8l-5.6,20.6c-0.2,0.6-0.2,1.2-0.2,1.8c0.1,1.7,1.1,2.8,2.9,3.3
		c2.7,0.7,4.6-0.7,5.4-3.2c0.3-1.1,4.5-16.6,5.7-21.1c1.6-6.1,5.3-11.7,11.6-11.7c4.5,0,6.6,2.6,6.6,6.3c0,1.2-0.2,2.6-0.6,4
		L286,61.8c-0.5,1.8-0.6,3.3-0.6,4.2c0,3.8,3.8,6.7,7.8,6.7c4,0,7-1.2,10.6-5.3c0,0,10-11.9,14.2-17c0,0,0,0,0,0c0,0,0,0,0,0
		c-0.5,1.8-0.7,3.6-0.7,5.3c0.1,3.8,1.3,7.4,3.4,10.2C323.3,69.4,327.9,72.8,337,72.8z M328.2,45.1c0.1-0.6,0.3-1.2,0.5-1.9
		c2.2-7.7,7.1-12.9,14.5-12.9c3.9,0,6.6,2.3,6.6,5.7c0,0.5-0.1,1-0.2,1.5c-1.4,6.8-9.3,7.7-14.8,7.7L328.2,45.1
		C328.2,45.1,328.2,45.1,328.2,45.1L328.2,45.1z"/>
	<path class="st8" d="M10.2,62.3c0,0-0.1,0-0.1,0C10.1,62.3,10.1,62.3,10.2,62.3z"/>
	<path class="st8" d="M10.8,62.4c-0.2,0-0.4-0.1-0.6-0.1C10.4,62.3,10.6,62.4,10.8,62.4z"/>
</g>
</svg>
