<svg xmlns="http://www.w3.org/2000/svg" viewBox="0 0 988.55 175.93"><defs><style>.cls-1{fill:#8be7ae;}</style></defs><title>logo_verde</title><g id="Capa_2" data-name="Capa 2"><g id="Layer_1" data-name="Layer 1"><path class="cls-1" d="M632.2,37.41a13.32,13.32,0,0,0,13.17-13.17A13.17,13.17,0,0,0,632.2,11.07,13,13,0,0,0,619,23.9q0,.17,0,.34A13.17,13.17,0,0,0,632.2,37.41Z"/><path class="cls-1" d="M985.55,128.24a9.56,9.56,0,0,0-13.52.26q-.31.32-.58.66c-16.18,19-32.36,26.58-50.61,26.58-11.32,0-20.57-2.54-25-8.32-3.47-4.62-5.08-11.32-3.7-18.72H913.4c31.89,0,55.93-15.49,55.93-43.68,0-21.49-17.33-31.89-34.67-31.89-9.24,0-18.26,1.39-26.58,5.78-8.78,4.39-17.57,12-27.5,23.8l-32.12,38.13a10.62,10.62,0,0,0-.74,1l-21.9,26c-3.93,4.39-6.93,7.39-10.86,7.39l14.33-52.46c3.7-12.71,3.7-26.12-3.93-36.29-7.16-9.24-17.33-13.4-28.43-13.4-12.71,0-24.73,4.62-32.82,13.87-6.47-9.48-15.72-13.87-26.58-13.87a39.07,39.07,0,0,0-28,12c.69-3.24-1.39-10.17-9.94-10.17A10.17,10.17,0,0,0,691,59.76a120,120,0,0,1-10.63,14.56c-14.56,17.33-36,42.75-36,42.75a9.64,9.64,0,0,0-.72,1.07l-20.3,24.12c-4.39,5.08-10.17,12.94-15.71,12.94L631.2,69.46a23.46,23.46,0,0,0,.92-5.09c0-5.08-4.39-9.47-10.17-9.47a9.87,9.87,0,0,0-7.63,3.47l-50.61,60.09a9.45,9.45,0,0,0-.54.81l-19.33,23c-4.39,5.08-10.17,12.94-15.71,12.94L567.42,12.62A10.09,10.09,0,0,0,560.25.37,9.64,9.64,0,0,0,548.33,7l-.08.31-16,58c-7.17-8.09-18.26-12.25-28.89-12.25-12.71,0-21.26,2.54-30.27,8.78-9.48,6.47-18,17.33-27,27.73l-7.22,8.75c-.18.2-.4.36-.57.58l-35.1,43.45c-4.39,5.08-10.17,12.94-15.72,12.94L426.82,12.69A10.09,10.09,0,0,0,419.66.44a9.64,9.64,0,0,0-11.92,6.62l-.08.31-16,58c-7.17-8.09-18.26-12.25-28.89-12.25-12.71,0-21.26,2.54-30.27,8.78-9.48,6.47-18,17.33-27,27.73l-11,13.14c-.09.1-.19.16-.28.27L277.4,123.15c-23.57,27-39.29,32.82-57.55,32.82-11.32,0-19.65-3-23.8-8.78-3.47-4.62-4.39-11.09-3-18.49h21.26c15.25,0,27-2.54,36-7.63,9.24-5.32,15.49-13.87,19-25.19a36.48,36.48,0,0,0,.92-15.72c-2.31-17.1-19-27-34.67-27-9.24,0-18.26,1.39-26.58,5.78-8.78,4.39-17.57,12-27.5,23.8l-14.87,17.65-.16.15v0l-17.09,20.28a10.76,10.76,0,0,0-1.23,1.69c-8,8.85-15.12,18.2-21.1,24.44a8.42,8.42,0,0,1-12.95-.89c-5.49-7.68-13-18.5-17.26-25.31,17.34-4,37.53-12.37,49.38-22.72,18.16-15.86,19.9-49.79,9.28-68.4-9.77-17.12-30.82-26.17-58.9-25.44C82.15,4.61,75,6.49,68.9,13.05c-2.37,2.53-4.45,3.09-13.72,26.51-5.69,14.37-18.14,45.83-30,70.9-2.35,5-13.49,27.23-14.74,29.77-1.39,2.84-2.83,5.66-4.36,8.42-.73,1.31-1.47,2.62-2.28,3.89-.31.49-2.74,3.66-.85,1.39-3.6,4.34-4.25,10.52,0,14.77,3.7,3.7,11.16,4.37,14.77,0,4.48-5.41,7.68-11.65,10.76-17.93,1.1-2.25,2.59-4.81,3.88-7.42C43,125,55.92,94.48,74.61,47.24c1.22-3.09,2.46-6.22,3.62-9.11a20.7,20.7,0,0,1,18.69-13h.26c9.38-.24,32.16.75,40.25,14.92,6.77,11.87,4.17,34.42-4.89,42.33-10.82,9.45-36.44,19.16-52.83,20A10.66,10.66,0,0,0,73.08,105a10.46,10.46,0,0,0-2.24,12.65c4.42,8.37,12.34,20.59,18.29,29.24,13.57,19.75,22.24,21.9,22.24,21.9a40.59,40.59,0,0,0,6.1,2,22.92,22.92,0,0,0,22.76-8l12.37-15.06,11.05-13.17c.11-.11.23-.18.34-.3l10.4-12.48c-3.7,14.1-1.62,27.5,5.78,37.44,5.78,7.63,17.1,16.64,39.75,16.64,13.64,0,25-2.77,36-8.55,12.25-6.24,22.65-15.48,35.59-30.28l1.23-1.46c.13-.13.26-.24.38-.38l9.71-11.56c-3.47,14.79-1.39,28,6,37.67,7.17,9.24,18.26,14.56,31.89,14.56a49.69,49.69,0,0,0,27.73-8.55c2.54,4.85,7.86,8.55,16.18,8.55,15.72,0,24.73-9.94,36.52-24l22.38-28.2c-3.47,14.79-1.39,28,6,37.67,7.17,9.24,18.26,14.56,31.89,14.56a49.69,49.69,0,0,0,27.73-8.55c2.54,4.85,7.86,8.55,16.18,8.55,15.72,0,24.73-9.94,36.52-24l34-40.8c.13-.16.22-.33.34-.49l4-4.82c-5.78,21-12.71,46.68-12.71,46.68a38.13,38.13,0,0,0-.92,7.16c0,7.63,5.78,16.18,18,16.18,15.72,0,25.19-10.4,37-24.5l31.29-37.2c.14-.17.25-.37.38-.55l6.78-8-15.48,55.7C663,167.76,666.68,174,674.31,174a9.85,9.85,0,0,0,9.48-7.4l13.13-46.7c9-31.2,23.57-47.38,39.52-47.38,12.94,0,15.25,11.79,11.33,24.73l-13.41,49.69c-1.62,6.24.93,10.86,6.47,12.25,6.47,1.62,11.09-1.62,12.94-7.63.69-2.54,10.86-40,13.87-50.85,3.93-14.79,12.71-28.19,28-28.19,14.56,0,18.49,11.32,14.56,25l-14.38,51.75a41,41,0,0,0-1.38,10.17c0,9.24,9.24,16.18,19,16.18s16.87-3,25.65-12.71c0,0,24.2-28.84,34.39-41-3.63,14-.85,27.59,6.51,37.49,6,8.09,17.1,16.41,39.06,16.41,26.81,0,48.76-11.32,67-33.74C989.25,138.17,989.71,131.9,985.55,128.24Zm-86.63-24C904.23,85.71,916,73,933.82,73c10.86,0,17.79,7.16,15.48,17.33-3.47,16.41-22.42,18.49-35.82,18.49H897.73A44.86,44.86,0,0,1,898.92,104.2Zm-699.27,0C205,85.71,216.75,73,234.55,73c10.86,0,17.79,7.16,15.48,17.33a19.24,19.24,0,0,1-9.71,13.4c-5.78,3.47-14.33,5.08-26.12,5.08H198.46a44.79,44.79,0,0,1,1.15-4.61Zm182.57-4.62c-1.38,6.24-3.24,12.25-4.85,17.8C367.66,152.05,353.1,156,340.62,156c-18.26,0-22.42-15-17.79-30.51,1.85-7.4,3.7-14.33,5.78-21.26C333.46,87.1,344.79,73,361.89,73c16.36,0,23.53,12.25,20.29,26.58Zm140.71,0c-1.38,6.24-3.24,12.25-4.85,17.8C508.37,152.05,493.81,156,481.33,156c-18.26,0-22.42-15-17.79-30.51,1.85-7.4,3.7-14.33,5.78-21.26C474.17,87.1,485.5,73,502.6,73c16.32,0,23.53,12.25,20.32,26.58Z"/></g></g></svg>