<?xml version="1.0" encoding="utf-8"?>
<!-- Generator: Adobe Illustrator 21.0.0, SVG Export Plug-In . SVG Version: 6.00 Build 0)  -->
<svg version="1.1" id="Layer_1" xmlns="http://www.w3.org/2000/svg" xmlns:xlink="http://www.w3.org/1999/xlink" x="0px" y="0px"
	 viewBox="0 0 191.4 235.3" style="enable-background:new 0 0 191.4 235.3;" xml:space="preserve">
<style type="text/css">
	.st0{fill:#DF6672;}
	.st1{fill:#C85863;}
	.st2{fill:#26435F;}
	.st3{fill:#FFFFFF;}
	.st4{fill:#DD98A6;}
	.st5{fill:none;stroke:#DD98A6;stroke-width:0.25;stroke-miterlimit:10;}
	.st6{fill:none;}
	.st7{fill:#8BE7AE;}
	.st8{fill:#606060;}
</style>
<g id="XMLID_293_">
	
		<ellipse id="XMLID_310_" transform="matrix(0.9988 -4.978978e-02 4.978978e-02 0.9988 -3.5055 5.9699)" class="st0" cx="118.1" cy="73.3" rx="68" ry="65.4"/>
	<path id="XMLID_309_" class="st1" d="M68.7,118.5c0,0-24.5-86.7,52.2-114.6c0,0-43.3,0-58.9,27S46.9,77.6,48.2,84.7
		C49.4,91.8,68.7,118.5,68.7,118.5z"/>
	<path id="XMLID_306_" class="st2" d="M53,107.1C34.3,71.2,48.4,26.8,84.3,8.2s80.3-4.5,98.9,31.4s4.5,80.3-31.4,98.9
		c-7.3,3.8-15.2,6.3-23.3,7.5l0,0C97.7,150.4,67.3,134.8,53,107.1z M176.1,43.3c-16.6-32-56.1-44.6-88.1-28
		c-32,16.6-44.6,56.1-28,88.1c12.8,24.7,39.9,38.6,67.3,34.7c7.2-1,14.2-3.3,20.8-6.7C180.2,114.8,192.7,75.3,176.1,43.3z"/>
	<g id="XMLID_300_">
		<polygon id="XMLID_305_" class="st3" points="70.6,127.5 6,216.9 3.9,226 9.6,231.5 18.4,228.6 53.6,178.3 84.8,136.2 		"/>
		<g id="XMLID_301_">
			<path id="XMLID_302_" class="st2" d="M2,230.2c-0.9-1.3-1.5-2.8-1.8-4.5c-0.5-3.1,0.1-6.2,1.9-8.7l67-94.5l20.4,10.3l-68.4,97.5
				c-3.6,5.2-10.9,6.5-16.1,2.9C3.8,232.4,2.8,231.4,2,230.2z M71.1,130.7l-63.8,90c-0.8,1.1-1.1,2.5-0.9,3.9c0.2,1.4,1,2.6,2.2,3.4
				c2.4,1.6,5.6,1,7.3-1.3l64.2-91.5L71.1,130.7z"/>
		</g>
	</g>
	<g id="XMLID_298_">
		<path id="XMLID_299_" class="st4" d="M164.5,43c1.6,2.4,3.7,6.5,3.8,9.1c0.2,3.8,6.2,3.8,6,0c-0.2-4.1-2.5-8.7-4.6-12.1
			C167.6,36.7,162.4,39.7,164.5,43L164.5,43z"/>
	</g>
	<g id="XMLID_295_">
		<path id="XMLID_296_" class="st4" d="M170.6,61.8c0,0.6,0.1,1.2,0.1,1.8c0.1,1.6,1.3,3.1,3,3c1.5-0.1,3.1-1.3,3-3
			c0-0.6-0.1-1.2-0.1-1.8c-0.1-1.6-1.3-3.1-3-3C172,58.9,170.5,60.1,170.6,61.8L170.6,61.8z"/>
	</g>
	<path id="XMLID_294_" class="st2" d="M153.9,51.4c-11.8-22.5-39.8-31.3-62.4-19.6c-27.9,14.5-38.8,48.9-24.4,76.8
		c11.2,21.6,32.5,35.6,56.4,37.7c1.8,0.2,9.5-1.5,9.5-3.7c0-2.2-1.8-4-4-4c-23.2-0.2-44.2-13.1-54.9-33.6c-12.4-24-3-53.6,21-66.1
		c18.8-9.7,42-2.4,51.8,16.4c7.6,14.7,1.9,32.8-12.8,40.4c-11.3,5.9-25.3,1.4-31.2-9.9c0,0-0.7-0.9-0.5-2.3c0.1-0.5,0.2-1.1,0.7-1.9
		c2.5-3.7,7.4-10.9,12.7-18.2c1.3-1.8,3.5-2.6,5.6-2.2c0.7,0.1,1.3,0.3,2,0.6c1.5,0.5,2.7,1.6,3.3,3c0.6,1.4,0.6,3-0.1,4.5
		c-0.5,1.2-2.1,4.7-9.5,4.6l-3.6,0.1c-1.3,0.1-2.5,0.7-3.2,1.8c-0.7,1.1-0.8,2.4-0.3,3.6l4.4,11c0.6,1.6,2.2,2.5,3.9,2.5
		c0.4,0,0.9-0.1,1.3-0.3c2-0.8,3-3.1,2.2-5.1l-2-5.1c-0.1-0.4,0.1-0.7,0.5-0.8c8.7-0.8,12.3-5.9,13.7-9.1c1.5-3.5,1.6-7.4,0.1-10.8
		c-1.5-3.5-4.3-6-7.9-7.3c-0.9-0.3-1.9-0.6-2.8-0.8c-5.2-1.2-10.6,0.9-13.8,5.2c-7.7,10.6-14.6,21-14.6,21.1c-0.6,1-0.7,3.3-0.6,4.4
		c0.3,2.3,1.1,4.1,1.7,5.1c11.2,20.6,41.7,24.5,56.8-1.4C159.2,76.8,160,62.9,153.9,51.4z"/>
</g>
</svg>
